{
    "asset" : {
        "generator" : "Khronos glTF Blender I/O v3.2.43",
        "version" : "2.0"
    },
    "extensionsUsed" : [
        "KHR_texture_transform"
    ],
    "extensionsRequired" : [
        "KHR_texture_transform"
    ],
    "scene" : 0,
    "scenes" : [
        {
            "name" : "Scene",
            "nodes" : [
                0
            ]
        }
    ],
    "nodes" : [
        {
            "mesh" : 0,
            "name" : "Plane.001",
            "rotation" : [
                0.7074173092842102,
                0.01650550216436386,
                0.016529038548469543,
                0.7064100503921509
            ],
            "scale" : [
                0.0378509983420372,
                0.0378510020673275,
                0.037851009517908096
            ]
        }
    ],
    "materials" : [
        {
            "doubleSided" : true,
            "name" : "Material.005",
            "pbrMetallicRoughness" : {
                "baseColorTexture" : {
                    "extensions" : {
                        "KHR_texture_transform" : {
                            "offset" : [
                                -0.49149179466080395,
                                0.24605306059213405
                            ],
                            "rotation" : 0.5777039527893066,
                            "scale" : [
                                -0.2999999225139618,
                                0.9000000953674316
                            ]
                        }
                    },
                    "index" : 0
                },
                "metallicFactor" : 0,
                "roughnessFactor" : 0.5
            }
        },
        {
            "doubleSided" : true,
            "name" : "Material.018",
            "pbrMetallicRoughness" : {
                "baseColorFactor" : [
                    0.02661099284887314,
                    0.13600024580955505,
                    0,
                    1
                ],
                "metallicFactor" : 0,
                "roughnessFactor" : 0.5
            }
        },
        {
            "doubleSided" : true,
            "name" : "Material.019",
            "pbrMetallicRoughness" : {
                "baseColorFactor" : [
                    0.01897069811820984,
                    0.29321643710136414,
                    0,
                    1
                ],
                "metallicFactor" : 0,
                "roughnessFactor" : 0.5
            }
        }
    ],
    "meshes" : [
        {
            "name" : "Plane.009",
            "primitives" : [
                {
                    "attributes" : {
                        "POSITION" : 0,
                        "NORMAL" : 1,
                        "TEXCOORD_0" : 2
                    },
                    "indices" : 3,
                    "material" : 0
                },
                {
                    "attributes" : {
                        "POSITION" : 4,
                        "NORMAL" : 5,
                        "TEXCOORD_0" : 6
                    },
                    "indices" : 7,
                    "material" : 1
                },
                {
                    "attributes" : {
                        "POSITION" : 8,
                        "NORMAL" : 9,
                        "TEXCOORD_0" : 10
                    },
                    "indices" : 11,
                    "material" : 2
                }
            ]
        }
    ],
    "textures" : [
        {
            "sampler" : 0,
            "source" : 0
        }
    ],
    "images" : [
        {
            "bufferView" : 4,
            "mimeType" : "image/png",
            "name" : "spinach"
        }
    ],
    "accessors" : [
        {
            "bufferView" : 0,
            "componentType" : 5126,
            "count" : 36,
            "max" : [
                -11.596761703491211,
                1.2856353521347046,
                14.529080390930176
            ],
            "min" : [
                -33.73796081542969,
                -0.9571206569671631,
                -16.13794708251953
            ],
            "type" : "VEC3"
        },
        {
            "bufferView" : 1,
            "componentType" : 5126,
            "count" : 36,
            "type" : "VEC3"
        },
        {
            "bufferView" : 2,
            "componentType" : 5126,
            "count" : 36,
            "type" : "VEC2"
        },
        {
            "bufferView" : 3,
            "componentType" : 5123,
            "count" : 96,
            "type" : "SCALAR"
        },
        {
            "bufferView" : 5,
            "componentType" : 5126,
            "count" : 60,
            "max" : [
                8.651653289794922,
                0.3074520230293274,
                14.53747844696045
            ],
            "min" : [
                -7.561206817626953,
                -0.8797063231468201,
                -14.702200889587402
            ],
            "type" : "VEC3"
        },
        {
            "bufferView" : 6,
            "componentType" : 5126,
            "count" : 60,
            "type" : "VEC3"
        },
        {
            "bufferView" : 7,
            "componentType" : 5126,
            "count" : 60,
            "type" : "VEC2"
        },
        {
            "bufferView" : 8,
            "componentType" : 5123,
            "count" : 174,
            "type" : "SCALAR"
        },
        {
            "bufferView" : 9,
            "componentType" : 5126,
            "count" : 7982,
            "max" : [
                33.9210205078125,
                0.01072834711521864,
                18.689849853515625
            ],
            "min" : [
                13.70269775390625,
                0.010725104250013828,
                -14.542515754699707
            ],
            "type" : "VEC3"
        },
        {
            "bufferView" : 10,
            "componentType" : 5126,
            "count" : 7982,
            "type" : "VEC3"
        },
        {
            "bufferView" : 11,
            "componentType" : 5126,
            "count" : 7982,
            "type" : "VEC2"
        },
        {
            "bufferView" : 12,
            "componentType" : 5123,
            "count" : 8367,
            "type" : "SCALAR"
        }
    ],
    "bufferViews" : [
        {
            "buffer" : 0,
            "byteLength" : 432,
            "byteOffset" : 0
        },
        {
            "buffer" : 0,
            "byteLength" : 432,
            "byteOffset" : 432
        },
        {
            "buffer" : 0,
            "byteLength" : 288,
            "byteOffset" : 864
        },
        {
            "buffer" : 0,
            "byteLength" : 192,
            "byteOffset" : 1152
        },
        {
            "buffer" : 0,
            "byteLength" : 2092403,
            "byteOffset" : 1344
        },
        {
            "buffer" : 0,
            "byteLength" : 720,
            "byteOffset" : 2093748
        },
        {
            "buffer" : 0,
            "byteLength" : 720,
            "byteOffset" : 2094468
        },
        {
            "buffer" : 0,
            "byteLength" : 480,
            "byteOffset" : 2095188
        },
        {
            "buffer" : 0,
            "byteLength" : 348,
            "byteOffset" : 2095668
        },
        {
            "buffer" : 0,
            "byteLength" : 95784,
            "byteOffset" : 2096016
        },
        {
            "buffer" : 0,
            "byteLength" : 95784,
            "byteOffset" : 2191800
        },
        {
            "buffer" : 0,
            "byteLength" : 63856,
            "byteOffset" : 2287584
        },
        {
            "buffer" : 0,
            "byteLength" : 16734,
            "byteOffset" : 2351440
        }
    ],
    "samplers" : [
        {
            "magFilter" : 9729,
            "minFilter" : 9987
        }
    ],
    "buffers" : [
        {
            "byteLength" : 2368176,
            "uri" : "data:application/octet-stream;base64,"
        }
    ]
}
